<svg width="393" height="73" viewBox="0 0 393 73" fill="none" xmlns="http://www.w3.org/2000/svg">
<path d="M203.618 0V72.33" stroke="white" stroke-miterlimit="10"/>
<path d="M70.1346 20.7288V42.3095H66.3858V25.3797H66.3357L59.64 42.3095H57.1441L50.298 25.3797H50.2479V42.3095H46.7998V20.7288H52.1925L58.387 36.7163H58.4873L65.0326 20.7288H70.1346ZM73.2319 22.3726C73.2319 21.7712 73.4324 21.27 73.8834 20.8691C74.3345 20.4682 74.8357 20.2677 75.4271 20.2677C76.0786 20.2677 76.6299 20.4682 77.0208 20.8691C77.4117 21.27 77.6723 21.7712 77.6723 22.3726C77.6723 22.974 77.4719 23.4752 77.0208 23.8762C76.5698 24.2771 76.0686 24.4776 75.4271 24.4776C74.7755 24.4776 74.2744 24.2771 73.8834 23.8762C73.4825 23.4251 73.2319 22.9239 73.2319 22.3726ZM77.2814 26.8231V42.3095H73.6328V26.8231H77.2814ZM88.3174 39.6633C88.8687 39.6633 89.4701 39.563 90.1116 39.2623C90.7631 39.0117 91.3645 38.6609 91.9058 38.26V41.6579C91.3044 42.0088 90.6528 42.2593 89.9111 42.4097C89.1593 42.5601 88.3675 42.6603 87.4654 42.6603C85.17 42.6603 83.3156 41.9586 81.9223 40.5153C80.4689 39.0618 79.7773 37.2175 79.7773 35.0223C79.7773 32.5265 80.5291 30.4716 81.9724 28.8779C83.4259 27.2842 85.4707 26.4823 88.167 26.4823C88.8686 26.4823 89.5703 26.5825 90.2118 26.7329C90.9135 26.8832 91.4648 27.1338 91.8557 27.3343V30.8325C91.3044 30.4316 90.703 30.0807 90.1617 29.8803C89.5603 29.6798 88.9589 29.5294 88.3675 29.5294C86.9141 29.5294 85.7714 29.9805 84.8693 30.9327C83.9671 31.885 83.5662 33.1279 83.5662 34.7317C83.5662 36.2753 84.0173 37.5282 84.8693 38.3802C85.7213 39.2322 86.8639 39.6633 88.3174 39.6633ZM102.25 26.5725C102.551 26.5725 102.801 26.5725 103.052 26.6226C103.303 26.6727 103.503 26.7229 103.653 26.773V30.4716C103.453 30.3213 103.202 30.1709 102.801 30.0707C102.4 29.9705 102 29.8702 101.448 29.8702C100.546 29.8702 99.8044 30.2712 99.2029 31.0229C98.6015 31.7747 98.2507 32.9174 98.2507 34.5212V42.3095H94.6021V26.8231H98.2507V29.2688H98.3008C98.6516 28.4168 99.1528 27.7653 99.8043 27.2741C100.506 26.8231 101.308 26.5725 102.25 26.5725ZM103.854 34.8118C103.854 32.2659 104.606 30.2211 105.999 28.7175C107.452 27.214 109.447 26.4723 111.993 26.4723C114.389 26.4723 116.293 27.1739 117.636 28.6173C118.979 30.0607 119.681 32.0153 119.681 34.461C119.681 36.9569 118.929 38.9616 117.536 40.4551C116.083 41.9586 114.138 42.7004 111.642 42.7004C109.247 42.7004 107.342 41.9987 105.949 40.6055C104.556 39.1621 103.854 37.2175 103.854 34.8118ZM107.653 34.6615C107.653 36.2552 108.004 37.5082 108.755 38.3602C109.507 39.2122 110.55 39.6633 111.903 39.6633C113.206 39.6633 114.248 39.2623 114.95 38.3602C115.652 37.5082 116.002 36.2653 116.002 34.5613C116.002 32.9174 115.652 31.6645 114.95 30.7623C114.248 29.9103 113.206 29.4593 111.953 29.4593C110.6 29.4593 109.607 29.9103 108.856 30.8125C108.004 31.7647 107.653 33.0176 107.653 34.6615ZM125.134 30.9227C125.134 31.4239 125.284 31.875 125.635 32.1757C125.986 32.4764 126.688 32.8272 127.83 33.2782C129.284 33.8797 130.326 34.5312 130.877 35.2228C131.479 35.9746 131.779 36.8166 131.779 37.869C131.779 39.3224 131.228 40.4651 130.086 41.3673C128.983 42.2694 127.439 42.6703 125.535 42.6703C124.883 42.6703 124.182 42.5701 123.39 42.4197C122.588 42.2694 121.936 42.0689 121.395 41.8183V38.2199C122.047 38.6709 122.798 39.0719 123.54 39.3224C124.292 39.573 124.994 39.7234 125.635 39.7234C126.437 39.7234 127.088 39.6232 127.429 39.3726C127.83 39.122 128.031 38.7712 128.031 38.2199C128.031 37.7187 127.83 37.3177 127.429 36.9168C127.028 36.566 126.226 36.165 125.134 35.714C123.781 35.1627 122.838 34.5111 122.287 33.8195C121.736 33.1179 121.435 32.2258 121.435 31.1232C121.435 29.7199 121.986 28.5772 123.079 27.6751C124.172 26.773 125.625 26.3219 127.379 26.3219C127.93 26.3219 128.532 26.372 129.173 26.5224C129.825 26.6727 130.426 26.8231 130.867 26.9734V30.5218C130.366 30.2211 129.815 29.9204 129.173 29.6698C128.522 29.4192 127.87 29.3189 127.279 29.3189C126.577 29.3189 126.026 29.4693 125.685 29.7199C125.334 30.0707 125.134 30.4215 125.134 30.9227ZM133.323 34.8118C133.323 32.2659 134.075 30.2211 135.468 28.7175C136.922 27.214 138.916 26.4723 141.462 26.4723C143.858 26.4723 145.762 27.1739 147.105 28.6173C148.459 30.0707 149.15 32.0153 149.15 34.461C149.15 36.9569 148.399 38.9616 147.005 40.4551C145.552 41.9586 143.607 42.7004 141.111 42.7004C138.716 42.7004 136.811 41.9987 135.418 40.6055C134.075 39.1621 133.323 37.2175 133.323 34.8118ZM137.122 34.6615C137.122 36.2552 137.473 37.5082 138.225 38.3602C138.976 39.2122 140.019 39.6633 141.372 39.6633C142.675 39.6633 143.718 39.2623 144.419 38.3602C145.121 37.5082 145.472 36.2653 145.472 34.5613C145.472 32.9174 145.121 31.6645 144.419 30.7623C143.718 29.9103 142.675 29.4593 141.422 29.4593C140.069 29.4593 139.077 29.9103 138.325 30.8125C137.523 31.7647 137.122 33.0176 137.122 34.6615ZM161.299 29.8201H155.856V42.3095H152.157V29.8201H149.561V26.8231H152.157V24.678C152.157 23.0843 152.709 21.7311 153.751 20.6786C154.804 19.6262 156.147 19.135 157.801 19.135C158.252 19.135 158.653 19.1851 159.003 19.1851C159.354 19.1851 159.655 19.2854 159.906 19.3856V22.533C159.805 22.4829 159.555 22.3826 159.254 22.2824C158.953 22.1822 158.603 22.1321 158.202 22.1321C157.45 22.1321 156.848 22.3826 156.457 22.8337C156.057 23.2848 155.856 24.0365 155.856 24.9286V26.773H161.299V23.2747L164.947 22.1721V26.7629H168.646V29.76H164.947V37.007C164.947 37.9592 165.148 38.6008 165.449 39.0017C165.799 39.4026 166.351 39.6031 167.092 39.6031C167.293 39.6031 167.544 39.553 167.844 39.4528C168.145 39.3525 168.396 39.2523 168.596 39.1019V42.099C168.345 42.2493 167.995 42.3496 167.443 42.4498C166.892 42.55 166.391 42.6002 165.85 42.6002C164.306 42.6002 163.153 42.1992 162.401 41.3973C161.65 40.5954 161.249 39.3525 161.249 37.6986L161.299 29.8201Z" fill="white"/>
<path d="M17.0801 13.5317H0V30.6119H17.0801V13.5317Z" fill="#E94F27"/>
<path d="M35.9649 13.5317H18.8848V30.6119H35.9649V13.5317Z" fill="#7EB537"/>
<path d="M17.0801 32.416H0V49.4962H17.0801V32.416Z" fill="#49A0EB"/>
<path d="M35.9649 32.416H18.8848V49.4962H35.9649V32.416Z" fill="#F2B33F"/>
<path d="M253.545 20.3178C256.863 20.3178 259.559 22.6432 260.241 25.8508H267.207C266.837 22.533 265.413 19.7364 262.827 17.5713C260.241 15.4062 257.134 14.3538 253.495 14.3538C249.436 14.3538 246.058 15.6167 243.422 18.1527C240.735 20.7388 239.412 23.9563 239.412 27.9056C239.412 31.8649 240.735 35.0825 243.422 37.6084C246.058 40.1444 249.436 41.4073 253.495 41.4073C257.134 41.4073 260.241 40.3549 262.827 38.1898C265.413 36.0247 266.837 33.2882 267.207 29.9604H260.301C259.62 33.178 256.873 35.4433 253.555 35.4433C249.496 35.4433 246.489 32.2759 246.489 27.9056C246.479 23.4852 249.375 20.3178 253.545 20.3178Z" fill="white"/>
<path d="M307.111 20.6886V14.885H300.255V40.9362H307.111V28.3867C307.111 23.7458 310.8 20.8991 316.553 20.8991V14.043C312.283 14.043 308.955 16.4687 307.111 20.6886Z" fill="white"/>
<path d="M330.938 14.3638C326.878 14.3638 323.5 15.6267 320.864 18.1627C318.178 20.7488 316.854 23.9663 316.854 27.9156C316.854 31.8749 318.178 35.0925 320.864 37.6184C323.5 40.1544 326.878 41.4173 330.938 41.4173C334.155 41.4173 337.052 40.5252 339.588 38.6709C342.124 36.8165 343.758 34.5011 344.489 31.6544H337.583C336.581 34.03 333.995 35.8242 330.988 35.8242C327.399 35.8242 324.553 33.4486 323.711 30.0206H344.75C344.91 29.4392 344.961 28.7576 344.961 27.9657C344.91 24.0064 343.587 20.7387 340.951 18.1527C338.325 15.6267 334.997 14.3638 330.938 14.3638ZM323.981 24.8083C325.084 21.8514 327.78 19.9569 330.998 19.9569C334.316 19.9569 337.222 21.9115 338.275 24.8083H323.981Z" fill="white"/>
<path d="M367.183 14.7346H362.522L350.173 32.1255V35.0022H363.284V40.9462H367.183V35.0022H371.804V31.7446H367.183V14.7346ZM363.284 31.7346H354.112L363.314 19.0848L363.284 31.7346Z" fill="white"/>
<path d="M378.66 37.6885C378.7 37.2375 378.77 36.8165 378.92 36.4055C379.221 35.6137 380.243 34.6614 380.704 34.2104C380.935 33.9798 381.426 33.639 382.148 33.188C382.869 32.7369 383.32 32.4262 383.511 32.3159C383.701 32.2057 384.273 31.8649 385.145 31.3737C387.38 30.0506 388.513 29.2487 390.187 27.6951C391.81 26.1414 392.612 24.247 392.612 22.0117C392.612 19.7765 391.78 17.9622 390.147 16.5188C388.523 15.1155 386.398 14.3938 383.862 14.3938C381.286 14.3938 379.161 15.1155 377.497 16.589C375.833 18.0624 374.921 20.0772 374.81 22.6131H378.559C378.75 19.4657 380.905 17.6515 383.792 17.6515C386.708 17.6515 388.753 19.5058 388.753 22.2021C388.753 25.119 386.478 27.1237 382.278 29.5895C381.296 30.1609 380.534 30.6119 380.043 30.9527C379.552 31.2935 378.87 31.7847 377.998 32.5064C377.126 33.2281 376.484 33.9497 376.063 34.5913C375.151 35.9545 374.319 38.1496 374.319 40.5753V40.9562H392.993V37.6986H378.66V37.6885Z" fill="white"/>
<path d="M297.308 27.9056C297.308 35.3832 291.244 41.4474 283.767 41.4474V35.1827H283.777C283.827 35.1827 283.877 35.1827 283.927 35.1827C283.957 35.1827 283.997 35.1827 284.027 35.1827C284.147 35.1827 284.268 35.1727 284.388 35.1627C284.438 35.1627 284.478 35.1526 284.528 35.1526C284.639 35.1426 284.739 35.1326 284.849 35.1125C284.869 35.1125 284.899 35.1025 284.919 35.1025C284.929 35.1025 284.949 35.1025 284.959 35.0925C284.989 35.0825 285.02 35.0825 285.05 35.0724C285.13 35.0624 285.2 35.0424 285.28 35.0323C285.441 35.0023 285.601 34.9622 285.761 34.9121C285.791 34.902 285.821 34.892 285.851 34.882C285.902 34.872 285.942 34.8519 285.992 34.8419C286.012 34.8319 286.032 34.8319 286.052 34.8219C286.122 34.8018 286.182 34.7717 286.252 34.7517C286.262 34.7517 286.272 34.7417 286.282 34.7417C286.353 34.7116 286.423 34.6916 286.493 34.6615C286.503 34.6615 286.523 34.6515 286.533 34.6414C286.583 34.6214 286.633 34.6013 286.683 34.5813C286.714 34.5713 286.754 34.5512 286.784 34.5412C286.844 34.5111 286.904 34.4911 286.954 34.461C286.964 34.461 286.964 34.451 286.974 34.451C287.034 34.4209 287.094 34.3908 287.155 34.3608C287.225 34.3207 287.305 34.2806 287.375 34.2405C287.435 34.2004 287.495 34.1703 287.566 34.1302H287.576C287.636 34.0901 287.696 34.05 287.756 34.02C287.816 33.9799 287.876 33.9398 287.936 33.8997C287.997 33.8596 288.057 33.8195 288.117 33.7694C288.237 33.6792 288.347 33.589 288.458 33.4987C288.508 33.4486 288.568 33.4085 288.618 33.3584C288.668 33.3083 288.728 33.2582 288.778 33.2081C288.828 33.158 288.879 33.1179 288.919 33.0677C288.949 33.0377 288.979 32.9976 289.019 32.9675C289.149 32.8372 289.27 32.6969 289.39 32.5565C289.45 32.4864 289.51 32.4062 289.56 32.336C289.6 32.2759 289.65 32.2157 289.691 32.1556C289.761 32.0654 289.821 31.9651 289.891 31.8649C289.951 31.7647 290.011 31.6644 290.071 31.5742C290.252 31.2635 290.402 30.9528 290.533 30.622C290.553 30.5719 290.573 30.5117 290.593 30.4616C290.613 30.4015 290.633 30.3514 290.653 30.2912C290.673 30.2311 290.693 30.181 290.713 30.1208C290.753 30.0106 290.783 29.8903 290.813 29.78C290.843 29.6597 290.873 29.5495 290.893 29.4292C290.903 29.369 290.913 29.3089 290.933 29.2488C290.943 29.1886 290.953 29.1285 290.964 29.0784C290.974 29.0383 290.974 29.0082 290.984 28.9681C290.984 28.9581 290.984 28.948 290.984 28.938C290.984 28.928 290.984 28.918 290.984 28.908C290.984 28.8879 290.984 28.8779 290.994 28.8578C291.004 28.7476 291.014 28.6373 291.024 28.5271C291.024 28.477 291.034 28.4268 291.034 28.3667C291.034 28.3466 291.034 28.3266 291.034 28.3166C291.034 28.2665 291.034 28.2063 291.044 28.1562C291.044 28.096 291.044 28.0359 291.044 27.9657C291.044 27.8956 291.044 27.8455 291.044 27.7753C291.044 27.7152 291.044 27.665 291.034 27.6049C291.034 27.5949 291.034 27.5849 291.034 27.5648C291.034 27.5047 291.024 27.4545 291.024 27.3944C291.014 27.2741 291.004 27.1639 290.994 27.0436C290.994 27.0336 290.994 27.0235 290.994 27.0235C290.994 27.0035 290.984 26.9734 290.984 26.9534C290.974 26.8632 290.953 26.7629 290.943 26.6727C290.933 26.6126 290.923 26.5524 290.913 26.4923C290.863 26.2517 290.803 26.0212 290.733 25.7906C290.703 25.7104 290.683 25.6202 290.653 25.54C290.623 25.4599 290.593 25.3696 290.563 25.2895C290.532 25.2093 290.502 25.1391 290.462 25.0589C290.422 24.9787 290.382 24.8885 290.352 24.8083C290.322 24.7582 290.302 24.6981 290.272 24.6479C290.252 24.6079 290.232 24.5678 290.212 24.5277C290.202 24.5076 290.192 24.4876 290.182 24.4675C290.162 24.4274 290.142 24.3974 290.122 24.3573C290.112 24.3372 290.101 24.3172 290.091 24.2971C290.071 24.257 290.041 24.2169 290.021 24.1768C289.991 24.1267 289.961 24.0766 289.931 24.0265C289.871 23.9263 289.801 23.826 289.731 23.7358C289.68 23.6656 289.63 23.6055 289.58 23.5353C289.53 23.4652 289.47 23.395 289.41 23.3248C289.3 23.1845 289.179 23.0542 289.049 22.9239C289.019 22.8938 288.989 22.8638 288.959 22.8337C288.909 22.7836 288.859 22.7335 288.808 22.6833C288.578 22.4628 288.327 22.2523 288.067 22.0619C287.976 22.0017 287.886 21.9416 287.796 21.8815C287.696 21.8113 287.586 21.7411 287.475 21.681C287.435 21.6609 287.405 21.6409 287.365 21.6108C287.225 21.5306 287.084 21.4605 286.944 21.3903C286.904 21.3702 286.864 21.3502 286.834 21.3402C286.824 21.3301 286.804 21.3302 286.794 21.3201C286.774 21.3101 286.744 21.3001 286.724 21.2901C286.212 21.0595 285.661 20.8891 285.09 20.7889C285.04 20.7789 284.979 20.7688 284.929 20.7588C284.739 20.7287 284.548 20.7087 284.348 20.6886C284.308 20.6886 284.268 20.6786 284.238 20.6786C284.097 20.6686 283.947 20.6686 283.807 20.6686H283.797V14.4039C291.244 14.3538 297.308 20.418 297.308 27.9056Z" fill="white"/>
<path d="M276.94 16.1981C276.991 16.168 277.041 16.138 277.091 16.1179C277.071 16.1279 277.041 16.148 277.021 16.158C276.991 16.168 276.971 16.1781 276.94 16.1981Z" fill="#00C1A0"/>
<path d="M277.231 16.0276C277.181 16.0577 277.131 16.0777 277.081 16.1078C277.141 16.0877 277.181 16.0577 277.231 16.0276Z" fill="#00C1A0"/>
<path d="M277.542 15.8672C277.462 15.9073 277.382 15.9474 277.312 15.9875C277.402 15.9374 277.492 15.8873 277.582 15.8472C277.562 15.8572 277.552 15.8572 277.542 15.8672Z" fill="#00C1A0"/>
<path d="M277.683 15.7978C277.713 15.7876 277.744 15.7673 277.764 15.7571C277.744 15.7673 277.713 15.7774 277.693 15.7876L277.683 15.7978Z" fill="#00C1A0"/>
<path d="M277.893 15.697C277.853 15.7171 277.813 15.7371 277.763 15.7572C277.803 15.7371 277.843 15.7171 277.893 15.697Z" fill="#00C1A0"/>
<path d="M278.264 15.5167C278.254 15.5167 278.254 15.5269 278.244 15.5269C278.264 15.5167 278.285 15.5065 278.315 15.4963C278.295 15.5065 278.285 15.5167 278.264 15.5167Z" fill="#00C1A0"/>
<path d="M278.153 15.5667C278.183 15.5567 278.213 15.5366 278.244 15.5266C278.213 15.5467 278.183 15.5567 278.153 15.5667Z" fill="#00C1A0"/>
<path d="M278.454 15.4364C278.444 15.4364 278.434 15.4464 278.414 15.4464C278.474 15.4163 278.534 15.3963 278.604 15.3662C278.554 15.3963 278.504 15.4163 278.454 15.4364Z" fill="#00C1A0"/>
<path d="M279.066 15.1958C279.046 15.2059 279.026 15.2059 279.006 15.2159C279.036 15.2059 279.066 15.1958 279.106 15.1758C279.086 15.1858 279.076 15.1858 279.066 15.1958Z" fill="#00C1A0"/>
<path d="M278.755 15.316C278.705 15.3361 278.655 15.3561 278.604 15.3762C278.725 15.3261 278.835 15.286 278.955 15.2358C278.935 15.2459 278.905 15.2559 278.885 15.2659C278.845 15.2759 278.805 15.296 278.755 15.316Z" fill="#00C1A0"/>
<path d="M279.226 15.1358C279.206 15.1458 279.176 15.1558 279.156 15.1658C279.196 15.1458 279.246 15.1358 279.287 15.1157C279.267 15.1257 279.246 15.1258 279.226 15.1358Z" fill="#00C1A0"/>
<path d="M280.009 14.885C279.998 14.885 279.988 14.8954 279.978 14.8954H279.988C279.998 14.885 279.998 14.885 280.009 14.885Z" fill="#00C1A0"/>
<path d="M279.307 15.106C279.337 15.0958 279.358 15.0856 279.388 15.0754C279.378 15.0754 279.378 15.0754 279.368 15.0856C279.347 15.0958 279.327 15.106 279.307 15.106Z" fill="#00C1A0"/>
<path d="M280.309 14.8048H280.299C280.399 14.7747 280.499 14.7547 280.6 14.7246C280.539 14.7346 280.479 14.7547 280.429 14.7647C280.379 14.7847 280.339 14.7948 280.309 14.8048Z" fill="#00C1A0"/>
<path d="M280.85 14.6746C280.79 14.6846 280.74 14.7046 280.68 14.7147C280.71 14.7046 280.74 14.7046 280.77 14.6946C280.8 14.6846 280.82 14.6746 280.85 14.6746Z" fill="#00C1A0"/>
<path d="M280.93 14.6546C280.9 14.6646 280.87 14.6646 280.85 14.6746C280.91 14.6646 280.97 14.6445 281.03 14.6345C281 14.6345 280.97 14.6445 280.93 14.6546Z" fill="#00C1A0"/>
<path d="M281.251 14.5945C281.231 14.5945 281.21 14.6045 281.19 14.6045C281.21 14.5945 281.231 14.5945 281.251 14.5945Z" fill="#00C1A0"/>
<path d="M281.08 14.6243C281.11 14.6143 281.15 14.6143 281.19 14.6042C281.17 14.6042 281.15 14.6143 281.14 14.6143C281.12 14.6143 281.1 14.6143 281.08 14.6243Z" fill="#00C1A0"/>
<path d="M281.611 14.5242C281.581 14.5242 281.551 14.5342 281.531 14.5342C281.571 14.5242 281.601 14.5242 281.641 14.5142C281.631 14.5242 281.621 14.5242 281.611 14.5242Z" fill="#00C1A0"/>
<path d="M281.742 14.5045C281.732 14.5045 281.732 14.5045 281.722 14.5045C281.732 14.5045 281.742 14.5045 281.753 14.4941C281.753 14.5045 281.742 14.5045 281.742 14.5045Z" fill="#00C1A0"/>
<path d="M283.025 14.3738C282.985 14.3738 282.945 14.3738 282.895 14.3838C282.945 14.3838 282.995 14.3738 283.055 14.3738C283.045 14.3738 283.035 14.3738 283.025 14.3738Z" fill="#00C1A0"/>
<path d="M277.542 39.9339C277.552 39.9439 277.562 39.9439 277.572 39.9539C277.542 39.9339 277.512 39.9239 277.481 39.9038C277.501 39.9138 277.522 39.9239 277.542 39.9339Z" fill="#00C1A0"/>
<path d="M278.265 40.2849C278.265 40.2849 278.275 40.2849 278.275 40.2952C278.265 40.2952 278.255 40.2849 278.244 40.2849C278.255 40.2745 278.265 40.2849 278.265 40.2849Z" fill="#00C1A0"/>
<path d="M278.755 40.4952C278.775 40.5052 278.795 40.5152 278.815 40.5152C278.765 40.4952 278.725 40.4751 278.675 40.4651C278.705 40.4751 278.735 40.4851 278.755 40.4952Z" fill="#00C1A0"/>
<path d="M278.885 40.5354C278.895 40.5354 278.905 40.5454 278.915 40.5454C278.895 40.5354 278.885 40.5354 278.865 40.5254C278.875 40.5354 278.875 40.5354 278.885 40.5354Z" fill="#00C1A0"/>
<path d="M279.066 40.6056C279.076 40.6158 279.097 40.6158 279.107 40.626C279.076 40.6158 279.046 40.6056 279.025 40.5955C279.036 40.5955 279.046 40.6056 279.066 40.6056Z" fill="#00C1A0"/>
<path d="M279.226 40.6656C279.246 40.6756 279.267 40.6856 279.287 40.6856C279.246 40.6756 279.196 40.6555 279.156 40.6355C279.176 40.6455 279.196 40.6556 279.226 40.6656Z" fill="#00C1A0"/>
<path d="M279.368 40.7161H279.378C279.358 40.706 279.327 40.6958 279.307 40.6958C279.327 40.706 279.347 40.706 279.368 40.7161Z" fill="#00C1A0"/>
<path d="M279.467 40.7559C279.547 40.7859 279.637 40.816 279.717 40.836C279.637 40.806 279.557 40.7759 279.467 40.7559Z" fill="#00C1A0"/>
<path d="M280.099 40.9467C280.089 40.9467 280.079 40.9466 280.068 40.9363C280.079 40.9363 280.089 40.9467 280.099 40.9467Z" fill="#00C1A0"/>
<path d="M280.309 40.9963C280.329 41.0065 280.35 41.0065 280.37 41.0167C280.35 41.0065 280.319 41.0065 280.299 40.9963C280.299 40.9963 280.299 40.9963 280.309 40.9963Z" fill="#00C1A0"/>
<path d="M280.419 41.0264C280.479 41.0364 280.529 41.0565 280.589 41.0665C280.509 41.0464 280.439 41.0264 280.358 41.0063C280.378 41.0164 280.399 41.0264 280.419 41.0264Z" fill="#00C1A0"/>
<path d="M280.93 41.1468C280.96 41.1568 280.99 41.1568 281.03 41.1668C280.97 41.1568 280.91 41.1367 280.85 41.1267C280.88 41.1367 280.91 41.1468 280.93 41.1468Z" fill="#00C1A0"/>
<path d="M281.141 41.1868C281.161 41.1868 281.181 41.1968 281.191 41.1968C281.161 41.1868 281.121 41.1868 281.091 41.1768C281.101 41.1868 281.121 41.1868 281.141 41.1868Z" fill="#00C1A0"/>
<path d="M280.278 14.8049C280.288 14.8049 280.288 14.8049 280.278 14.8049C280.268 14.8049 280.248 14.8149 280.238 14.8149C280.248 14.8149 280.268 14.815 280.278 14.8049Z" fill="#00C1A0"/>
<path d="M281.682 14.5143C281.702 14.5143 281.712 14.5143 281.733 14.5042C281.702 14.5042 281.682 14.5143 281.651 14.5143C281.662 14.5245 281.672 14.5143 281.682 14.5143Z" fill="#00C1A0"/>
<path d="M282.424 14.4238C282.464 14.4238 282.504 14.4138 282.534 14.4138C282.454 14.4238 282.384 14.4238 282.304 14.4339C282.324 14.4339 282.344 14.4339 282.364 14.4238C282.384 14.4238 282.404 14.4238 282.424 14.4238Z" fill="#00C1A0"/>
<path d="M282.775 14.3938C282.785 14.3938 282.795 14.3938 282.805 14.3938C282.755 14.3938 282.704 14.4038 282.654 14.4038C282.684 14.3938 282.724 14.3938 282.775 14.3938Z" fill="#00C1A0"/>
<path d="M276.941 39.6033C276.951 39.6135 276.961 39.6135 276.972 39.6237C276.951 39.6135 276.931 39.5932 276.9 39.583C276.921 39.5932 276.931 39.5932 276.941 39.6033Z" fill="#00C1A0"/>
<path d="M279.387 40.726C279.397 40.726 279.407 40.7364 279.418 40.7364C279.407 40.726 279.387 40.726 279.387 40.726C279.376 40.7157 279.376 40.7157 279.387 40.726Z" fill="#00C1A0"/>
<path d="M280.238 40.9863C280.258 40.9863 280.268 40.9963 280.288 40.9963C280.288 40.9963 280.288 40.9963 280.278 40.9963C280.268 40.9863 280.248 40.9863 280.238 40.9863Z" fill="#00C1A0"/>
<path d="M281.651 41.2771C281.682 41.2771 281.702 41.2873 281.733 41.2873C281.712 41.2873 281.702 41.2873 281.682 41.2771C281.672 41.2873 281.662 41.2873 281.651 41.2771Z" fill="#00C1A0"/>
<path d="M282.323 41.3672C282.393 41.3772 282.464 41.3772 282.534 41.3872C282.494 41.3872 282.454 41.3772 282.423 41.3772C282.403 41.3772 282.383 41.3772 282.363 41.3672C282.353 41.3772 282.333 41.3672 282.323 41.3672Z" fill="#00C1A0"/>
<path d="M282.654 41.3972C282.704 41.3972 282.755 41.4072 282.805 41.4072C282.795 41.4072 282.785 41.4072 282.775 41.4072C282.724 41.4072 282.684 41.4072 282.654 41.3972Z" fill="#00C1A0"/>
<path d="M283.757 14.3538V16.3585H276.66C276.68 16.3484 276.69 16.3384 276.71 16.3284C276.73 16.3184 276.76 16.2983 276.78 16.2883C276.861 16.2382 276.931 16.1981 277.011 16.148C277.081 16.1079 277.151 16.0678 277.221 16.0277C277.242 16.0177 277.272 15.9976 277.292 15.9876C277.372 15.9475 277.452 15.9074 277.522 15.8673C277.532 15.8573 277.542 15.8573 277.552 15.8473C277.562 15.8473 277.562 15.8372 277.572 15.8372C277.602 15.8272 277.632 15.8072 277.652 15.7971C277.652 15.7971 277.663 15.7971 277.663 15.7871C277.733 15.757 277.793 15.727 277.853 15.6869C277.943 15.6468 278.023 15.6067 278.114 15.5666C278.154 15.5466 278.184 15.5365 278.224 15.5165C278.244 15.5065 278.254 15.5065 278.274 15.4964C278.284 15.4864 278.304 15.4864 278.314 15.4764C278.334 15.4664 278.354 15.4563 278.374 15.4463C278.384 15.4363 278.394 15.4363 278.414 15.4363C278.464 15.4162 278.515 15.3962 278.565 15.3762C278.615 15.3561 278.665 15.3361 278.715 15.316C278.755 15.296 278.795 15.2859 278.845 15.2659C278.905 15.2458 278.966 15.2158 279.026 15.1957C279.036 15.1857 279.056 15.1857 279.066 15.1757C279.086 15.1657 279.096 15.1657 279.116 15.1556C279.136 15.1456 279.166 15.1356 279.186 15.1256C279.206 15.1155 279.226 15.1055 279.246 15.1055C279.256 15.1055 279.256 15.1055 279.266 15.0955C279.286 15.0855 279.306 15.0855 279.326 15.0754C279.356 15.0654 279.397 15.0554 279.427 15.0354C279.597 14.9752 279.777 14.9251 279.948 14.875C279.988 14.8649 280.018 14.8549 280.058 14.8449C280.068 14.8449 280.088 14.8349 280.098 14.8349C280.128 14.8249 280.158 14.8148 280.188 14.8148C280.208 14.8148 280.218 14.8048 280.239 14.8048C280.239 14.8048 280.239 14.8048 280.249 14.8048H280.259C280.299 14.7948 280.339 14.7848 280.379 14.7747C280.439 14.7647 280.489 14.7447 280.549 14.7346C280.579 14.7246 280.609 14.7246 280.639 14.7146C280.67 14.7046 280.7 14.7046 280.73 14.6946C280.76 14.6845 280.78 14.6845 280.81 14.6745C280.84 14.6645 280.87 14.6645 280.89 14.6545C280.92 14.6444 280.95 14.6444 280.99 14.6344C281.01 14.6344 281.03 14.6244 281.04 14.6244C281.06 14.6244 281.071 14.6144 281.091 14.6144C281.131 14.6043 281.171 14.5943 281.201 14.5943C281.241 14.5843 281.281 14.5843 281.311 14.5743C281.341 14.5642 281.371 14.5643 281.401 14.5542C281.431 14.5542 281.451 14.5442 281.481 14.5442C281.512 14.5442 281.542 14.5342 281.562 14.5342C281.572 14.5342 281.582 14.5342 281.592 14.5342C281.592 14.5342 281.592 14.5342 281.602 14.5342C281.632 14.5342 281.652 14.5242 281.682 14.5242C281.692 14.5242 281.692 14.5242 281.702 14.5242C281.712 14.5242 281.712 14.5242 281.722 14.5242C281.732 14.5242 281.732 14.5242 281.742 14.5242C281.772 14.5242 281.802 14.5141 281.832 14.5141C281.862 14.5141 281.892 14.5041 281.912 14.5041C281.943 14.5041 281.973 14.4941 282.003 14.4941C282.093 14.4841 282.183 14.474 282.273 14.464C282.354 14.454 282.424 14.444 282.504 14.444C282.544 14.444 282.584 14.4339 282.614 14.4339C282.664 14.4339 282.714 14.4239 282.764 14.4239C282.785 14.4239 282.815 14.4239 282.835 14.4239C282.845 14.4239 282.845 14.4239 282.855 14.4239C282.895 14.4239 282.935 14.4239 282.985 14.4139C282.995 14.4139 283.005 14.4139 283.015 14.4139H283.025C283.075 14.4139 283.125 14.4139 283.175 14.4039C283.196 14.4039 283.216 14.4039 283.246 14.4039C283.276 14.4039 283.306 14.4039 283.336 14.4039C283.346 14.4039 283.356 14.4039 283.366 14.4039C283.376 14.4039 283.386 14.4039 283.406 14.4039C283.416 14.4039 283.426 14.4039 283.446 14.4039C283.536 14.4039 283.627 14.4039 283.717 14.4039H283.757V14.3538Z" fill="#00C1A0"/>
<path d="M283.757 20.6284V35.1826H283.747C283.666 35.1826 283.596 35.1826 283.526 35.1826H272.34C271.939 34.5511 271.578 33.8796 271.287 33.1779H278.745C278.695 33.1278 278.645 33.0777 278.595 33.0376C278.564 33.0075 278.534 32.9774 278.504 32.9474C278.384 32.8171 278.264 32.6868 278.143 32.5464C278.083 32.4763 278.033 32.4061 277.973 32.3359C277.923 32.2658 277.873 32.2056 277.823 32.1355C277.753 32.0452 277.692 31.945 277.622 31.8448C277.592 31.7947 277.562 31.7445 277.532 31.6944C277.512 31.6543 277.482 31.6142 277.462 31.5741C277.452 31.5541 277.442 31.534 277.432 31.514C277.412 31.4739 277.392 31.4438 277.372 31.4037C277.362 31.3837 277.352 31.3636 277.342 31.3436C277.322 31.3035 277.302 31.2634 277.281 31.2233C277.251 31.1732 277.231 31.1131 277.201 31.0629C277.161 30.9828 277.121 30.8925 277.091 30.8124C277.061 30.7322 277.031 30.662 276.991 30.5818C276.961 30.5016 276.931 30.4114 276.901 30.3312C276.87 30.251 276.84 30.1608 276.82 30.0806C276.75 29.8501 276.69 29.6195 276.64 29.379C276.63 29.3188 276.62 29.2587 276.61 29.1986C276.59 29.1083 276.58 29.0081 276.57 28.9179H270.255C270.235 28.5871 270.215 28.2463 270.215 27.9155C270.215 27.5848 270.225 27.244 270.255 26.9132H276.56C276.56 26.8831 276.57 26.843 276.58 26.8129C276.59 26.7528 276.6 26.6927 276.61 26.6425C276.62 26.5824 276.63 26.5223 276.65 26.4621C276.67 26.3418 276.7 26.2316 276.73 26.1113C276.76 25.991 276.79 25.8808 276.83 25.7705C276.85 25.7104 276.87 25.6602 276.891 25.6001C276.911 25.54 276.931 25.4898 276.951 25.4297C276.971 25.3696 276.991 25.3194 277.011 25.2693C277.141 24.9386 277.291 24.6178 277.472 24.3171C277.532 24.2168 277.592 24.1166 277.652 24.0264C277.712 23.9262 277.783 23.8259 277.853 23.7357C277.893 23.6756 277.933 23.6154 277.983 23.5553C278.043 23.4751 278.093 23.4049 278.154 23.3348C278.274 23.1944 278.394 23.0541 278.524 22.9238C278.554 22.8937 278.585 22.8536 278.625 22.8236C278.675 22.7735 278.715 22.7334 278.765 22.6832H271.297C271.598 21.9816 271.949 21.31 272.35 20.6785H283.757V20.6284Z" fill="#00C1A0"/>
<path d="M283.757 39.4326V41.4373H283.737C283.647 41.4373 283.556 41.4373 283.466 41.4373C283.456 41.4373 283.446 41.4373 283.436 41.4373H283.426C283.416 41.4373 283.416 41.4373 283.406 41.4373C283.396 41.4373 283.396 41.4373 283.386 41.4373H283.376H283.366C283.346 41.4373 283.326 41.4373 283.306 41.4373H283.296C283.286 41.4373 283.286 41.4373 283.276 41.4373C283.256 41.4373 283.236 41.4373 283.216 41.4373C283.216 41.4373 283.216 41.4373 283.206 41.4373C283.155 41.4373 283.105 41.4373 283.055 41.4273C283.045 41.4273 283.025 41.4273 283.015 41.4273C282.985 41.4273 282.965 41.4273 282.935 41.4273C282.905 41.4273 282.885 41.4273 282.855 41.4273C282.835 41.4273 282.815 41.4273 282.805 41.4273C282.754 41.4273 282.704 41.4173 282.654 41.4173C282.614 41.4173 282.574 41.4073 282.544 41.4073C282.474 41.3972 282.404 41.3972 282.333 41.3872C282.313 41.3872 282.283 41.3772 282.263 41.3772C282.243 41.3772 282.223 41.3772 282.203 41.3672C282.183 41.3672 282.153 41.3571 282.133 41.3571C282.103 41.3571 282.073 41.3471 282.043 41.3471C282.013 41.3471 281.993 41.3371 281.963 41.3371C281.963 41.3371 281.963 41.3371 281.953 41.3371C281.923 41.3371 281.892 41.3271 281.872 41.3271C281.842 41.3271 281.812 41.3171 281.782 41.3171C281.772 41.3171 281.772 41.3171 281.762 41.3171C281.752 41.3171 281.752 41.3171 281.742 41.3171H281.732C281.702 41.3171 281.682 41.307 281.652 41.307C281.642 41.307 281.632 41.307 281.622 41.297C281.592 41.297 281.562 41.287 281.532 41.287C281.512 41.287 281.491 41.277 281.471 41.277C281.441 41.2669 281.401 41.2669 281.371 41.2569C281.341 41.2469 281.311 41.2469 281.281 41.2369C281.261 41.2369 281.241 41.2268 281.221 41.2268C281.211 41.2268 281.201 41.2268 281.191 41.2168C281.171 41.2168 281.151 41.2068 281.141 41.2068C281.121 41.2068 281.111 41.1968 281.091 41.1968C281.071 41.1968 281.05 41.1867 281.04 41.1867C281.01 41.1767 280.97 41.1767 280.94 41.1667C280.91 41.1567 280.88 41.1567 280.86 41.1467C280.83 41.1366 280.81 41.1366 280.78 41.1266C280.72 41.1166 280.66 41.0965 280.599 41.0865C280.539 41.0765 280.479 41.0564 280.429 41.0464C280.409 41.0464 280.389 41.0364 280.369 41.0364C280.349 41.0364 280.329 41.0264 280.309 41.0163H280.299C280.299 41.0163 280.299 41.0163 280.289 41.0163C280.269 41.0163 280.259 41.0063 280.239 41.0063C280.208 40.9963 280.178 40.9863 280.148 40.9863C280.138 40.9863 280.118 40.9763 280.108 40.9763C280.098 40.9763 280.088 40.9662 280.078 40.9662C280.068 40.9662 280.058 40.9562 280.048 40.9562C280.038 40.9562 280.018 40.9462 280.008 40.9462C279.998 40.9462 279.998 40.9462 279.988 40.9462C279.898 40.9161 279.808 40.8961 279.717 40.866C279.637 40.8359 279.547 40.8159 279.467 40.7858C279.447 40.7758 279.437 40.7758 279.417 40.7658C279.407 40.7658 279.397 40.7557 279.387 40.7557H279.377C279.356 40.7457 279.336 40.7457 279.316 40.7357C279.306 40.7357 279.306 40.7357 279.296 40.7257C279.276 40.7156 279.256 40.7056 279.236 40.7056C279.216 40.6956 279.196 40.6856 279.166 40.6856C279.146 40.6755 279.126 40.6755 279.116 40.6655C279.106 40.6555 279.086 40.6555 279.076 40.6455C279.066 40.6355 279.046 40.6354 279.036 40.6254C279.006 40.6154 278.966 40.5954 278.935 40.5853C278.925 40.5853 278.915 40.5753 278.905 40.5753C278.895 40.5753 278.895 40.5753 278.885 40.5653C278.865 40.5553 278.855 40.5553 278.835 40.5452C278.815 40.5352 278.795 40.5252 278.775 40.5252C278.745 40.5152 278.725 40.5051 278.695 40.4951C278.665 40.4851 278.635 40.4751 278.605 40.455C278.605 40.455 278.605 40.455 278.595 40.455C278.555 40.435 278.504 40.4149 278.464 40.4049C278.404 40.3849 278.344 40.3548 278.294 40.3247C278.294 40.3247 278.284 40.3247 278.284 40.3147C278.274 40.3147 278.274 40.3147 278.264 40.3047C278.234 40.2947 278.194 40.2746 278.164 40.2646C278.073 40.2245 277.993 40.1844 277.903 40.1443C277.863 40.1242 277.823 40.1042 277.773 40.0842C277.753 40.0741 277.723 40.0641 277.703 40.0541C277.683 40.0441 277.662 40.034 277.642 40.024C277.632 40.014 277.612 40.014 277.602 40.004C277.592 40.004 277.592 39.9939 277.582 39.9939C277.572 39.9839 277.562 39.9839 277.552 39.9739C277.532 39.9639 277.512 39.9539 277.492 39.9438C277.432 39.9138 277.372 39.8837 277.312 39.8536C277.211 39.8035 277.121 39.7434 277.021 39.6932C277.001 39.6832 276.991 39.6732 276.971 39.6632C276.961 39.6531 276.951 39.6531 276.941 39.6431C276.931 39.6331 276.911 39.6231 276.901 39.6231C276.841 39.583 276.77 39.5429 276.71 39.5128C276.71 39.5128 276.71 39.5128 276.7 39.5128C276.69 39.5028 276.67 39.4928 276.66 39.4827H283.757V39.4326Z" fill="#00C1A0"/>
<path d="M306.66 57.5149H302.731L302.019 59.0084H300.245L303.783 51.6211H305.598L309.136 59.0084H307.362L306.66 57.5149ZM306.009 56.1417L304.696 53.3652L303.382 56.1417H306.009Z" fill="white"/>
<path d="M320.784 54.8689V55.0994C320.784 58.0764 318.909 59.1289 316.885 59.1289C314.669 59.1289 312.524 57.886 312.524 55.3099C312.524 52.7239 314.689 51.501 316.975 51.501C318.208 51.501 319.581 51.8718 320.483 52.4131L320.012 53.8164C319.32 53.3854 318.268 52.9744 317.075 52.9744C315.471 52.9744 314.248 53.656 314.248 55.2999C314.248 56.9638 315.521 57.6755 316.865 57.6755C317.997 57.6755 318.889 57.1342 319.04 56.192H317.015V54.8789H320.784V54.8689Z" fill="white"/>
<path d="M329.524 55.861V57.2142H328.492V59.0185H326.757V57.2142H321.686V55.7809L326.346 51.6311H328.492V55.861H329.524ZM323.57 55.861H326.757V53.0244L323.57 55.861Z" fill="white"/>
<path d="M330.226 57.3748C331.188 57.1743 335.709 56.2221 335.709 54.1572C335.709 53.2852 334.917 52.9644 333.894 52.9644C332.561 52.9644 331.409 53.4957 330.677 53.9166L330.216 52.5033C331.098 51.9821 332.471 51.501 333.995 51.501C335.759 51.501 337.433 52.1625 337.433 54.0069C337.433 56.2321 335.017 57.1142 333.483 57.5552H337.453V59.0186H330.226V57.3748Z" fill="white"/>
<path d="M340.991 56.0918C340.991 54.1673 342.425 53.0847 344.319 53.0847C345.211 53.0847 346.033 53.3152 346.865 53.7763L346.304 55.0493C345.682 54.5983 345.061 54.3978 344.339 54.3978C343.387 54.3978 342.585 54.9892 342.585 56.0617C342.585 57.1443 343.377 57.7757 344.329 57.7757C345.051 57.7757 345.672 57.5452 346.324 57.0941L346.905 58.3671C346.033 58.9184 345.171 59.1389 344.299 59.1389C342.425 59.1389 340.991 58.0063 340.991 56.0918Z" fill="white"/>
<path d="M347.506 56.1319C347.506 54.3276 348.859 53.0847 350.743 53.0847C352.608 53.0847 353.941 54.3176 353.941 56.1219C353.941 57.906 352.608 59.1389 350.743 59.1389C348.859 59.1389 347.506 57.9161 347.506 56.1319ZM352.377 56.1219C352.377 55.1395 351.686 54.498 350.723 54.498C349.781 54.498 349.1 55.1395 349.1 56.1219C349.1 57.0941 349.781 57.7256 350.723 57.7256C351.686 57.7256 352.377 57.0941 352.377 56.1219Z" fill="white"/>
<path d="M363.955 55.4401V59.0185H362.381V55.5804C362.381 54.9389 362.11 54.538 361.519 54.538C360.777 54.538 360.286 55.1795 360.206 56.4725V59.0285H358.642V55.5905C358.642 54.949 358.361 54.548 357.78 54.548C356.978 54.548 356.457 55.2897 356.457 56.8534V59.0385H354.903V53.2349H356.457V54.6182C356.768 53.7461 357.399 53.1046 358.271 53.1046C359.203 53.1046 359.855 53.6158 360.096 54.558C360.426 53.706 361.078 53.1046 362.01 53.1046C363.203 53.0846 363.955 53.9065 363.955 55.4401Z" fill="white"/>
<path d="M371.703 56.0918C371.703 57.876 370.501 59.129 368.877 59.129C367.884 59.129 367.103 58.6478 366.652 57.846V61.0234H365.088V53.2351H366.652V54.3678C367.093 53.5759 367.874 53.0948 368.877 53.0948C370.521 53.0848 371.703 54.3277 371.703 56.0918ZM370.11 56.1019C370.11 55.1296 369.428 54.4379 368.386 54.4379C367.343 54.4379 366.642 55.1296 366.642 56.1019C366.642 57.0741 367.333 57.7658 368.386 57.7658C369.418 57.7658 370.11 57.0741 370.11 56.1019Z" fill="white"/>
<path d="M378.288 55.5403V59.0085H376.714V57.5751C376.173 58.5675 375.301 59.1087 374.229 59.1087C373.347 59.1087 372.555 58.6777 372.555 57.7255C372.555 56.1217 375.191 55.5403 376.704 55.2898C376.594 54.6583 376.113 54.4177 375.401 54.4177C374.62 54.4177 373.768 54.7284 373.166 55.1294L372.685 53.9065C373.457 53.4254 374.449 53.0946 375.482 53.0946C376.965 53.0846 378.288 53.7161 378.288 55.5403ZM376.714 56.1418C375.101 56.4725 374.209 56.7732 374.209 57.3446C374.209 57.7054 374.569 57.8357 374.88 57.8357C375.702 57.8458 376.614 57.0038 376.714 56.1418Z" fill="white"/>
<path d="M385.485 55.751V59.0086H383.932V56.0016C383.932 55.0293 383.511 54.5281 382.679 54.5281C381.737 54.5281 380.965 55.35 380.965 57.2846V59.0187H379.411V53.215H380.965V54.8288C381.336 53.8164 382.107 53.0847 383.2 53.0847C384.613 53.0847 385.485 54.0069 385.485 55.751Z" fill="white"/>
<path d="M392.983 53.2151L390.227 59.0488C389.495 60.5423 388.964 61.2841 387.61 61.2841C387.25 61.2841 386.829 61.244 386.307 61.1437L386.528 59.7304C386.959 59.8507 387.31 59.9008 387.6 59.9008C388.182 59.9008 388.412 59.5199 388.633 59.0388L388.683 58.9185L385.977 53.2051H387.661L389.475 57.1644L391.279 53.2051H392.983V53.2151Z" fill="white"/>
</svg>
