<svg width="41" height="42" viewBox="0 0 41 42" fill="none" xmlns="http://www.w3.org/2000/svg">
<rect y="0.98291" width="41" height="41" rx="20.5" fill="black"/>
<path d="M10.25 13.7748C10.25 12.9643 10.9286 12.3063 11.7651 12.3063H29.2349C30.0717 12.3063 30.75 12.9643 30.75 13.7748V31.3381C30.75 32.1489 30.0717 32.8063 29.2349 32.8063H11.7651C10.9287 32.8063 10.25 32.149 10.25 31.3383V13.7746V13.7748Z" fill="white"/>
<path d="M16.7689 29.3913V20.1701H13.8392V29.3913H16.7692H16.7689ZM15.3047 18.9113C16.3261 18.9113 16.962 18.2032 16.962 17.3183C16.9429 16.4132 16.3261 15.7249 15.3241 15.7249C14.3214 15.7249 13.6665 16.4132 13.6665 17.3182C13.6665 18.2031 14.3022 18.9112 15.2855 18.9112H15.3044L15.3047 18.9113ZM18.3905 29.3913H21.32V24.2423C21.32 23.967 21.3391 23.6911 21.4165 23.4945C21.6282 22.9437 22.1102 22.3734 22.9197 22.3734C23.9796 22.3734 24.4038 23.219 24.4038 24.4587V29.3913H27.3332V24.1041C27.3332 21.2719 25.8881 19.9539 23.9606 19.9539C22.3803 19.9539 21.6863 20.8779 21.3007 21.5072H21.3202V20.1704H18.3907C18.4289 21.0354 18.3904 29.3916 18.3904 29.3916L18.3905 29.3913Z" fill="black"/>
</svg>
